<svg xmlns="http://www.w3.org/2000/svg" viewBox="0 0 512 512">
  <rect width="512" height="512" rx="80" fill="#0A0E1A"/>

  <!-- T crossbar -->
  <rect x="72" y="130" width="168" height="50" rx="8" fill="white"/>
  <!-- T stem -->
  <rect x="132" y="130" width="48" height="222" rx="8" fill="white"/>

  <!-- F stem -->
  <rect x="272" y="130" width="48" height="222" rx="8" fill="white"/>
  <!-- F top bar -->
  <rect x="272" y="130" width="168" height="50" rx="8" fill="white"/>
  <!-- F middle bar -->
  <rect x="272" y="218" width="120" height="42" rx="8" fill="white"/>

  <!-- SWIM -->
  <circle cx="156" cy="418" r="26" fill="#3B82F6"/>
  <circle cx="166" cy="410" r="4" fill="white"/>
  <line x1="162" y1="415" x2="140" y2="417" stroke="white" stroke-width="4" stroke-linecap="round"/>
  <line x1="162" y1="415" x2="168" y2="420" stroke="white" stroke-width="3" stroke-linecap="round"/>
  <line x1="150" y1="416" x2="144" y2="422" stroke="white" stroke-width="3" stroke-linecap="round"/>
  <line x1="140" y1="417" x2="134" y2="412" stroke="white" stroke-width="3" stroke-linecap="round"/>
  <line x1="140" y1="417" x2="134" y2="422" stroke="white" stroke-width="3" stroke-linecap="round"/>

  <!-- BIKE -->
  <circle cx="256" cy="418" r="26" fill="#22C55E"/>
  <circle cx="244" cy="424" r="8" fill="none" stroke="white" stroke-width="2.5"/>
  <circle cx="268" cy="424" r="8" fill="none" stroke="white" stroke-width="2.5"/>
  <polyline points="244,424 254,412 268,424" fill="none" stroke="white" stroke-width="2.5" stroke-linejoin="round" stroke-linecap="round"/>
  <line x1="254" y1="412" x2="256" y2="418" stroke="white" stroke-width="2.5" stroke-linecap="round"/>
  <line x1="256" y1="418" x2="264" y2="411" stroke="white" stroke-width="3" stroke-linecap="round"/>
  <circle cx="266" cy="408" r="4" fill="white"/>
  <line x1="264" y1="411" x2="268" y2="414" stroke="white" stroke-width="2.5" stroke-linecap="round"/>

  <!-- RUN -->
  <circle cx="356" cy="418" r="26" fill="#F59E0B"/>
  <circle cx="360" cy="404" r="4" fill="white"/>
  <line x1="359" y1="408" x2="354" y2="418" stroke="white" stroke-width="3.5" stroke-linecap="round"/>
  <line x1="359" y1="408" x2="366" y2="413" stroke="white" stroke-width="3" stroke-linecap="round"/>
  <line x1="358" y1="410" x2="350" y2="415" stroke="white" stroke-width="3" stroke-linecap="round"/>
  <line x1="354" y1="418" x2="363" y2="430" stroke="white" stroke-width="3.5" stroke-linecap="round"/>
  <line x1="354" y1="418" x2="346" y2="428" stroke="white" stroke-width="3.5" stroke-linecap="round"/>
  <line x1="363" y1="430" x2="368" y2="430" stroke="white" stroke-width="3" stroke-linecap="round"/>
  <line x1="346" y1="428" x2="348" y2="434" stroke="white" stroke-width="3" stroke-linecap="round"/>
</svg>
